# xmcd
#
# Track frame offsets:
#	182
#	12545
#	25012
#	37697
#	51502
#	62607
#	74355
#	86802
#	99260
#	109317
#	121762
#	134545
#	147895
#	161055
#	174322
#	187597
#	199252
#	211147
#	222112
#	234512
#	245457
#	257332
#	270215
#	281862
#
# Disc length: 3915 seconds
#
# Revision: 11
# Processed by: cddbd v1.5.2PL0 Copyright (c) Steve Scherf et al.
# Submitted via: EasyCDDAExtractor 16.0.6.1
#
DISCID=4e0f4918
DTITLE=Hank Williams - 24 of Hank Williams' Greatest Hits
DYEAR=1976
DGENRE=Country
TTITLE0=Your Cheatin' Heart
TTITLE1=Move It On Over
TTITLE2=I'm So Lonesome I Could Cry
TTITLE3=Ramblin' Man
TTITLE4=My Heart Would Know
TTITLE5=Kaw-Liga
TTITLE6=Cold, Cold Heart
TTITLE7=Lovesick Blues
TTITLE8=Honky Tonk Blues
TTITLE9=Honky Tonkin'
TTITLE10=There'll Be No Teardrops Tonight
TTITLE11=Mind Your Own Business
TTITLE12=Jambalaya (On The Bayou)
TTITLE13=Wedding Bells
TTITLE14=Hey, Good Lookin'
TTITLE15=Window Shopping
TTITLE16=Settin' The Woods On Fire
TTITLE17=I Can't Help It (If I'm Still In Love With You)
TTITLE18=Half As Much
TTITLE19=Why Don't You Love Me
TTITLE20=You Win Again
TTITLE21=May You Never Be Alone
TTITLE22=Baby, We're Really In Love
TTITLE23=Take These Chains From My Heart
EXTD=Polygram Records
EXTT0=
EXTT1=
EXTT2=
EXTT3=
EXTT4=
EXTT5=
EXTT6=
EXTT7=
EXTT8=
EXTT9=
EXTT10=
EXTT11=
EXTT12=
EXTT13=
EXTT14=
EXTT15=
EXTT16=
EXTT17=
EXTT18=
EXTT19=
EXTT20=
EXTT21=
EXTT22=
EXTT23=
PLAYORDER=
